<svg width="29" height="29" viewBox="0 0 29 29" fill="none" xmlns="http://www.w3.org/2000/svg">
<path d="M7.25001 8.45837H13.2917C13.6121 8.45837 13.9195 8.58568 14.1461 8.81229C14.3727 9.03889 14.5 9.34624 14.5 9.66671C14.5 9.98718 14.3727 10.2945 14.1461 10.5211C13.9195 10.7477 13.6121 10.875 13.2917 10.875H7.25001C6.92954 10.875 6.62219 10.7477 6.39558 10.5211C6.16898 10.2945 6.04167 9.98718 6.04167 9.66671C6.04167 9.34624 6.16898 9.03889 6.39558 8.81229C6.62219 8.58568 6.92954 8.45837 7.25001 8.45837V8.45837ZM15.7083 18.125H21.75C22.0705 18.125 22.3778 18.2523 22.6044 18.479C22.831 18.7056 22.9583 19.0129 22.9583 19.3334C22.9583 19.6538 22.831 19.9612 22.6044 20.1878C22.3778 20.4144 22.0705 20.5417 21.75 20.5417H15.7083C15.3879 20.5417 15.0805 20.4144 14.8539 20.1878C14.6273 19.9612 14.5 19.6538 14.5 19.3334C14.5 19.0129 14.6273 18.7056 14.8539 18.479C15.0805 18.2523 15.3879 18.125 15.7083 18.125ZM7.25001 13.2917H21.75C22.0705 13.2917 22.3778 13.419 22.6044 13.6456C22.831 13.8722 22.9583 14.1796 22.9583 14.5C22.9583 14.8205 22.831 15.1279 22.6044 15.3545C22.3778 15.5811 22.0705 15.7084 21.75 15.7084H7.25001C6.92954 15.7084 6.62219 15.5811 6.39558 15.3545C6.16898 15.1279 6.04167 14.8205 6.04167 14.5C6.04167 14.1796 6.16898 13.8722 6.39558 13.6456C6.62219 13.419 6.92954 13.2917 7.25001 13.2917Z" fill="white"/>
</svg>
