<svg width="27" height="27" viewBox="0 0 27 27" fill="none" xmlns="http://www.w3.org/2000/svg">
<path fill-rule="evenodd" clip-rule="evenodd" d="M9.5 5C11.5968 5 13.3586 6.43412 13.8582 8.375H23V10.625H13.8582C13.3586 12.5659 11.5968 14 9.5 14C7.01472 14 5 11.9853 5 9.5C5 7.01472 7.01472 5 9.5 5ZM9.5 11.75C10.7426 11.75 11.75 10.7426 11.75 9.5C11.75 8.25736 10.7426 7.25 9.5 7.25C8.25736 7.25 7.25 8.25736 7.25 9.5C7.25 10.7426 8.25736 11.75 9.5 11.75Z" fill="#0077B6"/>
<path fill-rule="evenodd" clip-rule="evenodd" d="M19.125 22.5C17.0282 22.5 15.2664 21.0659 14.7668 19.125H5.625V16.875H14.7668C15.2664 14.9341 17.0282 13.5 19.125 13.5C21.6102 13.5 23.625 15.5148 23.625 18C23.625 20.4852 21.6102 22.5 19.125 22.5ZM19.125 20.25C20.3677 20.25 21.375 19.2427 21.375 18C21.375 16.7573 20.3677 15.75 19.125 15.75C17.8823 15.75 16.875 16.7573 16.875 18C16.875 19.2427 17.8823 20.25 19.125 20.25Z" fill="#0077B6"/>
</svg>
