<svg width="8" height="12" viewBox="0 0 8 12" fill="none" xmlns="http://www.w3.org/2000/svg">
<path d="M2.96419 6.00003L7.08919 10.125C7.16878 10.2019 7.23226 10.2939 7.27594 10.3955C7.31961 10.4972 7.3426 10.6065 7.34356 10.7172C7.34452 10.8278 7.32344 10.9376 7.28154 11.04C7.23964 11.1424 7.17776 11.2354 7.09952 11.3137C7.02127 11.3919 6.92823 11.4538 6.82581 11.4957C6.7234 11.5376 6.61367 11.5587 6.50302 11.5577C6.39237 11.5568 6.28302 11.5338 6.18135 11.4901C6.07968 11.4464 5.98773 11.383 5.91085 11.3034L1.19669 6.5892C1.04046 6.43292 0.952698 6.221 0.952698 6.00003C0.952698 5.77906 1.04046 5.56714 1.19669 5.41086L5.91085 0.696695C6.06802 0.544897 6.27852 0.460901 6.49702 0.4628C6.71552 0.464699 6.92453 0.55234 7.07904 0.706846C7.23354 0.861353 7.32118 1.07036 7.32308 1.28886C7.32498 1.50736 7.24098 1.71786 7.08919 1.87503L2.96419 6.00003Z" fill="#0077B6"/>
</svg>
