<svg width="28" height="28" viewBox="0 0 28 28" fill="none" xmlns="http://www.w3.org/2000/svg">
<path d="M7.87528 22.4586H20.1252C21.4139 22.4586 22.4586 21.414 22.4586 20.1253V9.54713C22.4586 9.21405 22.3873 8.88483 22.2495 8.58159L21.6221 7.20116C21.2434 6.36819 20.4128 5.83337 19.4978 5.83337H8.50275C7.58774 5.83337 6.75719 6.36819 6.37856 7.20117L5.7511 8.58159C5.61327 8.88483 5.54195 9.21405 5.54195 9.54713V20.1253C5.54195 21.414 6.58663 22.4586 7.87528 22.4586Z" stroke="#707070" stroke-width="1.5" stroke-linecap="round" stroke-linejoin="round"/>
<path d="M11.0833 9.04163C11.0833 10.4914 9.91667 11.9583 8.16667 11.9583C6.41667 11.9583 5.54167 10.4914 5.54167 9.04163" stroke="#707070" stroke-width="1.5" stroke-linecap="round" stroke-linejoin="round"/>
<path d="M22.4583 9.04163C22.4583 10.4914 21.5833 11.9583 19.8333 11.9583C18.0833 11.9583 16.9167 10.4914 16.9167 9.04163" stroke="#707070" stroke-width="1.5" stroke-linecap="round" stroke-linejoin="round"/>
<path d="M16.9167 9.04163C16.9167 10.4914 15.75 11.9583 14 11.9583C12.25 11.9583 11.0833 10.4914 11.0833 9.04163" stroke="#707070" stroke-width="1.5" stroke-linecap="round" stroke-linejoin="round"/>
<path d="M11.3746 18.3742C11.3746 17.0855 12.4193 16.0409 13.7079 16.0409H14.2912C15.5799 16.0409 16.6245 17.0855 16.6245 18.3742V22.4576H11.3746V18.3742Z" stroke="#707070" stroke-width="1.5" stroke-linecap="round" stroke-linejoin="round"/>
</svg>
